<svg width="1920" height="1080" viewBox="0 0 1920 1080" xmlns="http://www.w3.org/2000/svg"><rect width="1920" height="1080" fill="#dedede"/><path d="M 0,1080 C 0,1080 0,180 0,180 C 121.32820512820513,213.73333333333335 242.65641025641025,247.46666666666667 357,244 C 471.34358974358975,240.53333333333333 578.7025641025641,199.8666666666667 676,193 C 773.2974358974359,186.1333333333333 860.5333333333333,213.06666666666666 954,214 C 1047.4666666666667,214.93333333333334 1147.1641025641027,189.86666666666665 1249,165 C 1350.8358974358973,140.13333333333335 1454.8102564102562,115.46666666666667 1567,118 C 1679.1897435897438,120.53333333333333 1799.5948717948718,150.26666666666665 1920,180 C 1920,180 1920,1080 1920,1080 Z" fill="#3d8eff" opacity="0.09999999999999999"/><path d="M 0,1080 C 0,1080 0,360 0,360 C 122.37179487179486,359.73333333333335 244.74358974358972,359.46666666666664 348,349 C 451.2564102564103,338.53333333333336 535.3974358974359,317.8666666666667 640,306 C 744.6025641025641,294.1333333333333 869.6666666666665,291.0666666666667 965,318 C 1060.3333333333335,344.9333333333333 1125.9358974358975,401.8666666666666 1224,411 C 1322.0641025641025,420.1333333333334 1452.5897435897436,381.4666666666667 1574,365 C 1695.4102564102564,348.5333333333333 1807.7051282051282,354.26666666666665 1920,360 C 1920,360 1920,1080 1920,1080 Z" fill="#3d8eff" opacity="0.19999999999999998"/><path d="M 0,1080 C 0,1080 0,540 0,540 C 127.83076923076922,536.9205128205128 255.66153846153844,533.8410256410257 348,516 C 440.33846153846156,498.1589743589744 497.1846153846153,465.5564102564103 598,473 C 698.8153846153847,480.4435897435897 843.6000000000001,527.9333333333333 945,540 C 1046.3999999999999,552.0666666666667 1104.4153846153845,528.7102564102564 1220,538 C 1335.5846153846155,547.2897435897436 1508.7384615384615,589.225641025641 1635,595 C 1761.2615384615385,600.774358974359 1840.6307692307691,570.3871794871795 1920,540 C 1920,540 1920,1080 1920,1080 Z" fill="#3d8eff" opacity="0.3"/><path d="M 0,1080 C 0,1080 0,720 0,720 C 141.425641025641,698.8282051282051 282.851282051282,677.6564102564104 378,674 C 473.148717948718,670.3435897435896 522.0205128205129,684.2025641025641 609,676 C 695.9794871794871,667.7974358974359 821.0666666666668,637.5333333333334 943,665 C 1064.9333333333332,692.4666666666666 1183.7128205128204,777.6641025641026 1285,786 C 1386.2871794871796,794.3358974358974 1470.0820512820512,725.8102564102564 1573,702 C 1675.9179487179488,678.1897435897436 1797.9589743589745,699.0948717948718 1920,720 C 1920,720 1920,1080 1920,1080 Z" fill="#3d8eff" opacity="0.39999999999999997"/><path d="M 0,1080 C 0,1080 0,900 0,900 C 97.21282051282046,924.725641025641 194.4256410256409,949.4512820512821 300,934 C 405.5743589743591,918.5487179487179 519.5102564102566,862.9205128205127 613,863 C 706.4897435897434,863.0794871794873 779.5333333333331,918.8666666666667 908,934 C 1036.466666666667,949.1333333333333 1220.3564102564103,923.6128205128205 1333,903 C 1445.6435897435897,882.3871794871795 1487.0410256410257,866.6820512820514 1573,867 C 1658.9589743589743,867.3179487179486 1789.479487179487,883.6589743589743 1920,900 C 1920,900 1920,1080 1920,1080 Z" fill="#3d8eff" opacity="0.49999999999999994"/></svg>